<?xml version="1.0" encoding="utf-8"?>
<!-- Generator: Adobe Illustrator 23.0.0, SVG Export Plug-In . SVG Version: 6.00 Build 0)  -->
<svg version="1.1" id="Layer_1" xmlns="http://www.w3.org/2000/svg" xmlns:xlink="http://www.w3.org/1999/xlink" x="0px" y="0px"
	 viewBox="0 0 1020.5 1020.5" style="enable-background:new 0 0 1020.5 1020.5;" xml:space="preserve">
<style type="text/css">
	.st0{fill:#C12026;}
</style>
<g>
	<path class="st0" d="M427.3,357.6c5-9.1,12.5-13.6,22.5-13.6c4.5,0,8.7,1.1,12.6,3.4s7,5.7,9.5,10.2l38.5,72.6l38.2-72.6
		c2.5-4.5,5.7-8,9.5-10.2c3.9-2.3,8.1-3.4,12.6-3.4s8.8,1.1,12.8,3.4s7.2,5.7,9.7,10.2l125.6,232.9c18-33.4,28.2-71.5,28.2-112.1
		c0-130.8-106-236.8-236.8-236.8s-236.8,106-236.8,236.8c0,40.6,10.2,78.7,28.2,112.1L427.3,357.6z"/>
	<polygon class="st0" points="362.3,578.8 430.6,578.8 488.9,467.6 453.9,404.6 	"/>
	<polygon class="st0" points="571.5,404.6 483.9,578.8 663.7,578.8 	"/>
	<path class="st0" d="M705.6,644.9h-38.7c-2.3,0-4-0.5-5.2-1.7c-1.1-1.1-1.7-2.7-1.7-4.9s0.6-3.9,1.7-5c1.2-1.1,2.9-1.7,5.3-1.7
		h64.4v-22.1H667c-4.6,0-8.8,0.7-12.4,2c-3.7,1.4-6.9,3.3-9.5,5.7c-2.6,2.5-4.6,5.4-5.9,8.8c-1.3,3.3-1.9,7-1.9,10.8
		c0,4,0.7,7.7,2.1,11c1.4,3.4,3.4,6.4,6,8.9s5.7,4.4,9.4,5.8c3.6,1.4,7.7,2,12,2h38.8c3,0,5.3,0.6,6.7,1.8c1.3,1.1,1.9,2.9,1.9,5.4
		c0,2.3-0.6,4-2,5.3s-3.6,2-6.6,2h-67v17.2l-23.2-23.4c3.9-2.3,7.2-5.5,9.7-9.4c3.4-5.3,5.2-12,5.2-19.7c0-5.1-0.8-9.9-2.3-14.1
		c-1.6-4.3-3.9-8-6.9-11s-6.7-5.4-11-7c-4.2-1.6-9-2.4-14.2-2.4h-64.4v90L480.6,615c-1.1-1.9-2.4-3.4-3.9-4.6c-1.8-1.3-3.9-2-6.3-2
		s-4.6,0.7-6.4,2c-1.6,1.2-2.9,2.7-4,4.6l-47,78.2l-20.6-75.9c-2.2-7.6-7.6-8.7-10.6-8.7c-4.8,0-8.5,2.6-10.5,7.2l-22.7,52l-22.7-52
		c-1-2.3-2.5-4.1-4.5-5.4c-1.9-1.2-4.1-1.8-6.3-1.8c-5.6,0-9.5,3.1-10.9,8.8l-23,84.2h22.2l14.1-52l19.6,45.3c2.1,5.1,6,7.8,11,7.8
		c2.6,0,4.9-0.8,6.8-2.3c1.6-1.3,3-3.1,4.1-5.5l19.8-45.4l14.2,52h40.5l36.3-61.4l12.4,20.7h-21.6l-11.3,19.3h44.3l12.7,21.3h47.3
		v-69.8H596c4.2,0,7.3,1,9.4,3c2.1,1.9,3.1,5.2,3.1,9.6c0,4.5-1,7.9-3.1,10.1c-2,2.1-5.1,3.2-9.4,3.2h-39V678h33.7l21.4,23.5h93.6
		c4.8,0,9.2-0.7,12.9-2.1c3.8-1.4,7-3.5,9.5-6c2.5-2.6,4.5-5.7,5.7-9.2c1.2-3.4,1.8-7.2,1.8-11.1c0-9.3-2.7-16.4-7.9-21.1
		C722.6,647.3,715.1,644.9,705.6,644.9z"/>
	<g>
		<path class="st0" d="M343.5,778.3l-11.3-38.7l-14.5,37.7c-0.5,1.1-1.2,1.6-2.2,1.6c-1.2,0-1.9-0.5-2.3-1.6l-14.4-37.7l-11.3,38.7
			h-4.2l12.9-44.1c0.4-1.2,1.1-1.9,2.3-1.9c0.5,0,0.9,0.1,1.3,0.4c0.4,0.2,0.7,0.6,0.9,1.2l15,38.9l14.9-38.9c0.4-1,1.1-1.6,2.1-1.6
			c1.1,0,1.8,0.6,2.2,1.9l12.9,44.1L343.5,778.3L343.5,778.3z"/>
		<path class="st0" d="M404,778.3l-7.7-12.9h-26.2l2.1-3.6h22L380,738.1l-24,40.2h-4.8l26.9-44.7c0.3-0.5,0.6-0.8,0.9-1
			s0.7-0.3,1.2-0.3c0.8,0,1.5,0.5,2.1,1.4l26.8,44.7H404V778.3z"/>
		<path class="st0" d="M460.7,778.3L448,764.8c-0.3,0-0.5,0.1-0.7,0.1s-0.4,0-0.6,0h-21.2V761h21.2c4,0,7-1,8.9-3s2.8-5,2.8-9.1
			c0-3.9-1-6.9-2.9-8.8c-1.9-2-4.7-2.9-8.4-2.9h-27.6v41.2h-4.3V733h31.9c4.9,0,8.7,1.4,11.5,4.2c2.7,2.8,4.1,6.7,4.1,11.8
			c0,4-0.9,7.3-2.6,9.9c-1.7,2.5-4.1,4.3-7.3,5.3l14,14.2h-6.1V778.3z"/>
		<path class="st0" d="M472.1,778.3v-45.4h4.3v45.4H472.1z M511.6,778.3l-32.2-21.5c-0.7-0.4-1-1.1-1-1.9c0-0.4,0.1-0.8,0.2-1.1
			c0.2-0.3,0.5-0.6,0.9-0.9l30.9-20h6.9L482.5,755l35.7,23.4L511.6,778.3L511.6,778.3z"/>
		<path class="st0" d="M524.7,778.3v-45.4h39.2v4.2H529v37.1h35v4.2L524.7,778.3L524.7,778.3z M534.9,757.1v-3.9h27.2v3.9H534.9z"/>
		<path class="st0" d="M587.7,778.3V737h-18.4v-4.2h41v4.2h-18.4v41.2L587.7,778.3L587.7,778.3z"/>
		<path class="st0" d="M617.2,778.3v-45.4h4.2v45.4H617.2z"/>
		<path class="st0" d="M634.8,738.9v39.4h-4V735c0-0.8,0.2-1.5,0.6-2c0.4-0.5,1-0.7,1.7-0.7s1.4,0.4,2.1,1.1l37,38.7v-39.4h4v43.5
			c0,0.8-0.2,1.5-0.6,1.9c-0.4,0.5-1,0.7-1.6,0.7c-0.8,0-1.5-0.4-2.2-1.1L634.8,738.9z"/>
		<path class="st0" d="M705.2,778.3c-3.1,0-5.9-0.6-8.5-1.8s-4.9-2.8-6.7-4.9c-1.9-2.1-3.4-4.5-4.4-7.3c-1.1-2.8-1.6-5.9-1.6-9.2
			s0.5-6.4,1.6-9.1c1.1-2.7,2.5-5.1,4.4-7s4.1-3.4,6.7-4.5c2.6-1.1,5.4-1.6,8.5-1.6h23.7v4.2h-23.7c-2.5,0-4.7,0.4-6.8,1.3
			c-2.1,0.9-3.9,2.1-5.4,3.7c-1.5,1.6-2.7,3.5-3.6,5.8c-0.9,2.3-1.3,4.7-1.3,7.4s0.4,5.2,1.3,7.5c0.9,2.3,2,4.3,3.6,5.9
			c1.5,1.7,3.3,3,5.4,3.9c2.1,1,4.4,1.4,6.8,1.4h22.2v-17h-23.2v-3.9h27.5v25.1L705.2,778.3L705.2,778.3z"/>
	</g>
</g>
</svg>
